<mxfile host="65bd71144e">
    <diagram id="RXZXu16WfCTaJEGOg-8W" name="Page-1">
        <mxGraphModel dx="578" dy="556" grid="1" gridSize="10" guides="1" tooltips="1" connect="1" arrows="1" fold="1" page="1" pageScale="1" pageWidth="850" pageHeight="1100" math="0" shadow="0">
            <root>
                <mxCell id="0"/>
                <mxCell id="1" parent="0"/>
                <mxCell id="3" value="" style="rounded=0;whiteSpace=wrap;html=1;dashed=1;fillColor=none;" vertex="1" parent="1">
                    <mxGeometry x="501.5" y="680" width="293.5" height="140" as="geometry"/>
                </mxCell>
                <mxCell id="4" value="&lt;span style=&quot;font-size: 14px&quot;&gt;业务处理&lt;/span&gt;" style="rounded=0;whiteSpace=wrap;html=1;fillColor=#f8cecc;strokeColor=#b85450;" vertex="1" parent="1">
                    <mxGeometry x="675" y="720" width="90" height="60" as="geometry"/>
                </mxCell>
                <mxCell id="23" value="&lt;div style=&quot;text-align: center&quot;&gt;&lt;font face=&quot;helvetica&quot; style=&quot;font-size: 16px&quot;&gt;&lt;b&gt;业务进程&lt;/b&gt;&lt;/font&gt;&lt;/div&gt;" style="text;whiteSpace=wrap;html=1;" vertex="1" parent="1">
                    <mxGeometry x="508" y="680" width="90" height="30" as="geometry"/>
                </mxCell>
                <mxCell id="28" style="edgeStyle=none;html=1;" edge="1" parent="1" source="25" target="26">
                    <mxGeometry relative="1" as="geometry"/>
                </mxCell>
                <mxCell id="25" value="&lt;font style=&quot;font-size: 16px&quot;&gt;&lt;b&gt;DB&lt;/b&gt;&lt;/font&gt;" style="shape=cylinder3;whiteSpace=wrap;html=1;boundedLbl=1;backgroundOutline=1;size=15;fillColor=#f5f5f5;fontColor=#333333;strokeColor=#666666;" vertex="1" parent="1">
                    <mxGeometry x="380" y="710" width="60" height="80" as="geometry"/>
                </mxCell>
                <mxCell id="27" style="edgeStyle=none;html=1;" edge="1" parent="1" source="26" target="4">
                    <mxGeometry relative="1" as="geometry"/>
                </mxCell>
                <mxCell id="26" value="" style="sketch=0;outlineConnect=0;fontColor=#232F3E;gradientColor=none;fillColor=#2E27AD;strokeColor=none;dashed=0;verticalLabelPosition=bottom;verticalAlign=top;align=center;html=1;fontSize=12;fontStyle=0;aspect=fixed;pointerEvents=1;shape=mxgraph.aws4.cache_node;strokeWidth=1;" vertex="1" parent="1">
                    <mxGeometry x="536" y="718" width="64" height="64" as="geometry"/>
                </mxCell>
                <mxCell id="29" value="&lt;div style=&quot;text-align: center&quot;&gt;&lt;font face=&quot;helvetica&quot; style=&quot;font-size: 17px&quot;&gt;scan&lt;/font&gt;&lt;/div&gt;" style="text;whiteSpace=wrap;html=1;strokeWidth=4;" vertex="1" parent="1">
                    <mxGeometry x="455" y="710" width="60" height="30" as="geometry"/>
                </mxCell>
                <mxCell id="30" value="&lt;div style=&quot;text-align: center&quot;&gt;&lt;font face=&quot;helvetica&quot;&gt;&lt;span style=&quot;font-size: 17px&quot;&gt;read&lt;/span&gt;&lt;/font&gt;&lt;/div&gt;" style="text;whiteSpace=wrap;html=1;strokeWidth=4;" vertex="1" parent="1">
                    <mxGeometry x="610" y="718" width="60" height="30" as="geometry"/>
                </mxCell>
            </root>
        </mxGraphModel>
    </diagram>
</mxfile>